<?xml version="1.0" encoding="UTF-8"?>
<svg width="20px" height="14px" viewBox="0 0 20 14" version="1.1" xmlns="http://www.w3.org/2000/svg" xmlns:xlink="http://www.w3.org/1999/xlink">
    <title>united_states</title>
    <g id="Page-1" stroke="none" stroke-width="1" fill="none" fill-rule="evenodd">
        <g id="countries_flags" transform="translate(-1217.000000, -253.000000)" fill-rule="nonzero">
            <g id="layer10" transform="translate(1217.000000, 253.000000)">
                <g id="united_states" transform="translate(0.500000, 0.494441)">
                    <rect id="rect1784" fill="#ED5565" x="0" y="0" width="18.5208462" height="12.435423"></rect>
                    <path d="M0,1.48326222 L18.5208458,1.48326222 M18.5208458,3.39640422 L0,3.39640422 M0,5.30954621 L18.5208458,5.30954621 M18.5208458,7.22268821 L0,7.22268821 M0,9.13583021 L18.5208458,9.13583021 M18.5208458,11.0489722 L0,11.0489722" id="path1786" stroke="#F5F7FA" stroke-width="0.84691642" fill="#000000"></path>
                    <rect id="rect1788" fill="#4758A9" x="0" y="0" width="9.45092148" height="6.75077408"></rect>
                    <g id="g1813" transform="translate(0.420891, 0.286971)" fill="#FFFFFF">
                        <g id="s18">
                            <g id="s9">
                                <g id="s5">
                                    <g id="s4-5">
                                        <polygon id="s-8" points="0.36668555 0 0.59158888 0.69218128 0.0027843231 0.26438972 0.730586777 0.26438972 0.14178222 0.69218128"></polygon>
                                        <g id="use1791" transform="translate(0.000000, 1.339199)">
                                            <polygon id="s-8" points="0.36668555 0 0.59158888 0.69218128 0.0027843231 0.26438972 0.730586777 0.26438972 0.14178222 0.69218128"></polygon>
                                        </g>
                                        <g id="use1793" transform="translate(0.000000, 2.678399)">
                                            <polygon id="s-8" points="0.36668555 0 0.59158888 0.69218128 0.0027843231 0.26438972 0.730586777 0.26438972 0.14178222 0.69218128"></polygon>
                                        </g>
                                        <g id="use1795" transform="translate(0.000000, 4.017598)">
                                            <polygon id="s-8" points="0.36668555 0 0.59158888 0.69218128 0.0027843231 0.26438972 0.730586777 0.26438972 0.14178222 0.69218128"></polygon>
                                        </g>
                                    </g>
                                    <g id="use1798" transform="translate(0.000000, 5.356798)">
                                        <polygon id="s-8" points="0.36668555 0 0.59158888 0.69218128 0.0027843231 0.26438972 0.730586777 0.26438972 0.14178222 0.69218128"></polygon>
                                    </g>
                                </g>
                                <g id="s4-5" transform="translate(0.787577, 0.669600)">
                                    <polygon id="s-8" points="0.36668555 0 0.59158888 0.69218128 0.0027843231 0.26438972 0.730586777 0.26438972 0.14178222 0.69218128"></polygon>
                                    <g id="use1791" transform="translate(0.000000, 1.339199)">
                                        <polygon id="s-8" points="0.36668555 0 0.59158888 0.69218128 0.0027843231 0.26438972 0.730586777 0.26438972 0.14178222 0.69218128"></polygon>
                                    </g>
                                    <g id="use1793" transform="translate(0.000000, 2.678399)">
                                        <polygon id="s-8" points="0.36668555 0 0.59158888 0.69218128 0.0027843231 0.26438972 0.730586777 0.26438972 0.14178222 0.69218128"></polygon>
                                    </g>
                                    <g id="use1795" transform="translate(0.000000, 4.017598)">
                                        <polygon id="s-8" points="0.36668555 0 0.59158888 0.69218128 0.0027843231 0.26438972 0.730586777 0.26438972 0.14178222 0.69218128"></polygon>
                                    </g>
                                </g>
                            </g>
                            <g id="s9" transform="translate(1.575154, 0.000000)">
                                <g id="s5">
                                    <g id="s4-5">
                                        <polygon id="s-8" points="0.36668555 0 0.59158888 0.69218128 0.0027843231 0.26438972 0.730586777 0.26438972 0.14178222 0.69218128"></polygon>
                                        <g id="use1791" transform="translate(0.000000, 1.339199)">
                                            <polygon id="s-8" points="0.36668555 0 0.59158888 0.69218128 0.0027843231 0.26438972 0.730586777 0.26438972 0.14178222 0.69218128"></polygon>
                                        </g>
                                        <g id="use1793" transform="translate(0.000000, 2.678399)">
                                            <polygon id="s-8" points="0.36668555 0 0.59158888 0.69218128 0.0027843231 0.26438972 0.730586777 0.26438972 0.14178222 0.69218128"></polygon>
                                        </g>
                                        <g id="use1795" transform="translate(0.000000, 4.017598)">
                                            <polygon id="s-8" points="0.36668555 0 0.59158888 0.69218128 0.0027843231 0.26438972 0.730586777 0.26438972 0.14178222 0.69218128"></polygon>
                                        </g>
                                    </g>
                                    <g id="use1798" transform="translate(0.000000, 5.356798)">
                                        <polygon id="s-8" points="0.36668555 0 0.59158888 0.69218128 0.0027843231 0.26438972 0.730586777 0.26438972 0.14178222 0.69218128"></polygon>
                                    </g>
                                </g>
                                <g id="s4-5" transform="translate(0.787577, 0.669600)">
                                    <polygon id="s-8" points="0.36668555 0 0.59158888 0.69218128 0.0027843231 0.26438972 0.730586777 0.26438972 0.14178222 0.69218128"></polygon>
                                    <g id="use1791" transform="translate(0.000000, 1.339199)">
                                        <polygon id="s-8" points="0.36668555 0 0.59158888 0.69218128 0.0027843231 0.26438972 0.730586777 0.26438972 0.14178222 0.69218128"></polygon>
                                    </g>
                                    <g id="use1793" transform="translate(0.000000, 2.678399)">
                                        <polygon id="s-8" points="0.36668555 0 0.59158888 0.69218128 0.0027843231 0.26438972 0.730586777 0.26438972 0.14178222 0.69218128"></polygon>
                                    </g>
                                    <g id="use1795" transform="translate(0.000000, 4.017598)">
                                        <polygon id="s-8" points="0.36668555 0 0.59158888 0.69218128 0.0027843231 0.26438972 0.730586777 0.26438972 0.14178222 0.69218128"></polygon>
                                    </g>
                                </g>
                            </g>
                        </g>
                        <g id="s18" transform="translate(3.150307, 0.000000)">
                            <g id="s9">
                                <g id="s5">
                                    <g id="s4-5">
                                        <polygon id="s-8" points="0.36668555 0 0.59158888 0.69218128 0.0027843231 0.26438972 0.730586777 0.26438972 0.14178222 0.69218128"></polygon>
                                        <g id="use1791" transform="translate(0.000000, 1.339199)">
                                            <polygon id="s-8" points="0.36668555 0 0.59158888 0.69218128 0.0027843231 0.26438972 0.730586777 0.26438972 0.14178222 0.69218128"></polygon>
                                        </g>
                                        <g id="use1793" transform="translate(0.000000, 2.678399)">
                                            <polygon id="s-8" points="0.36668555 0 0.59158888 0.69218128 0.0027843231 0.26438972 0.730586777 0.26438972 0.14178222 0.69218128"></polygon>
                                        </g>
                                        <g id="use1795" transform="translate(0.000000, 4.017598)">
                                            <polygon id="s-8" points="0.36668555 0 0.59158888 0.69218128 0.0027843231 0.26438972 0.730586777 0.26438972 0.14178222 0.69218128"></polygon>
                                        </g>
                                    </g>
                                    <g id="use1798" transform="translate(0.000000, 5.356798)">
                                        <polygon id="s-8" points="0.36668555 0 0.59158888 0.69218128 0.0027843231 0.26438972 0.730586777 0.26438972 0.14178222 0.69218128"></polygon>
                                    </g>
                                </g>
                                <g id="s4-5" transform="translate(0.787577, 0.669600)">
                                    <polygon id="s-8" points="0.36668555 0 0.59158888 0.69218128 0.0027843231 0.26438972 0.730586777 0.26438972 0.14178222 0.69218128"></polygon>
                                    <g id="use1791" transform="translate(0.000000, 1.339199)">
                                        <polygon id="s-8" points="0.36668555 0 0.59158888 0.69218128 0.0027843231 0.26438972 0.730586777 0.26438972 0.14178222 0.69218128"></polygon>
                                    </g>
                                    <g id="use1793" transform="translate(0.000000, 2.678399)">
                                        <polygon id="s-8" points="0.36668555 0 0.59158888 0.69218128 0.0027843231 0.26438972 0.730586777 0.26438972 0.14178222 0.69218128"></polygon>
                                    </g>
                                    <g id="use1795" transform="translate(0.000000, 4.017598)">
                                        <polygon id="s-8" points="0.36668555 0 0.59158888 0.69218128 0.0027843231 0.26438972 0.730586777 0.26438972 0.14178222 0.69218128"></polygon>
                                    </g>
                                </g>
                            </g>
                            <g id="s9" transform="translate(1.575154, 0.000000)">
                                <g id="s5">
                                    <g id="s4-5">
                                        <polygon id="s-8" points="0.36668555 0 0.59158888 0.69218128 0.0027843231 0.26438972 0.730586777 0.26438972 0.14178222 0.69218128"></polygon>
                                        <g id="use1791" transform="translate(0.000000, 1.339199)">
                                            <polygon id="s-8" points="0.36668555 0 0.59158888 0.69218128 0.0027843231 0.26438972 0.730586777 0.26438972 0.14178222 0.69218128"></polygon>
                                        </g>
                                        <g id="use1793" transform="translate(0.000000, 2.678399)">
                                            <polygon id="s-8" points="0.36668555 0 0.59158888 0.69218128 0.0027843231 0.26438972 0.730586777 0.26438972 0.14178222 0.69218128"></polygon>
                                        </g>
                                        <g id="use1795" transform="translate(0.000000, 4.017598)">
                                            <polygon id="s-8" points="0.36668555 0 0.59158888 0.69218128 0.0027843231 0.26438972 0.730586777 0.26438972 0.14178222 0.69218128"></polygon>
                                        </g>
                                    </g>
                                    <g id="use1798" transform="translate(0.000000, 5.356798)">
                                        <polygon id="s-8" points="0.36668555 0 0.59158888 0.69218128 0.0027843231 0.26438972 0.730586777 0.26438972 0.14178222 0.69218128"></polygon>
                                    </g>
                                </g>
                                <g id="s4-5" transform="translate(0.787577, 0.669600)">
                                    <polygon id="s-8" points="0.36668555 0 0.59158888 0.69218128 0.0027843231 0.26438972 0.730586777 0.26438972 0.14178222 0.69218128"></polygon>
                                    <g id="use1791" transform="translate(0.000000, 1.339199)">
                                        <polygon id="s-8" points="0.36668555 0 0.59158888 0.69218128 0.0027843231 0.26438972 0.730586777 0.26438972 0.14178222 0.69218128"></polygon>
                                    </g>
                                    <g id="use1793" transform="translate(0.000000, 2.678399)">
                                        <polygon id="s-8" points="0.36668555 0 0.59158888 0.69218128 0.0027843231 0.26438972 0.730586777 0.26438972 0.14178222 0.69218128"></polygon>
                                    </g>
                                    <g id="use1795" transform="translate(0.000000, 4.017598)">
                                        <polygon id="s-8" points="0.36668555 0 0.59158888 0.69218128 0.0027843231 0.26438972 0.730586777 0.26438972 0.14178222 0.69218128"></polygon>
                                    </g>
                                </g>
                            </g>
                        </g>
                        <g id="s9" transform="translate(6.300614, 0.000000)">
                            <g id="s5">
                                <g id="s4-5">
                                    <polygon id="s-8" points="0.36668555 0 0.59158888 0.69218128 0.0027843231 0.26438972 0.730586777 0.26438972 0.14178222 0.69218128"></polygon>
                                    <g id="use1791" transform="translate(0.000000, 1.339199)">
                                        <polygon id="s-8" points="0.36668555 0 0.59158888 0.69218128 0.0027843231 0.26438972 0.730586777 0.26438972 0.14178222 0.69218128"></polygon>
                                    </g>
                                    <g id="use1793" transform="translate(0.000000, 2.678399)">
                                        <polygon id="s-8" points="0.36668555 0 0.59158888 0.69218128 0.0027843231 0.26438972 0.730586777 0.26438972 0.14178222 0.69218128"></polygon>
                                    </g>
                                    <g id="use1795" transform="translate(0.000000, 4.017598)">
                                        <polygon id="s-8" points="0.36668555 0 0.59158888 0.69218128 0.0027843231 0.26438972 0.730586777 0.26438972 0.14178222 0.69218128"></polygon>
                                    </g>
                                </g>
                                <g id="use1798" transform="translate(0.000000, 5.356798)">
                                    <polygon id="s-8" points="0.36668555 0 0.59158888 0.69218128 0.0027843231 0.26438972 0.730586777 0.26438972 0.14178222 0.69218128"></polygon>
                                </g>
                            </g>
                            <g id="s4-5" transform="translate(0.787577, 0.669600)">
                                <polygon id="s-8" points="0.36668555 0 0.59158888 0.69218128 0.0027843231 0.26438972 0.730586777 0.26438972 0.14178222 0.69218128"></polygon>
                                <g id="use1791" transform="translate(0.000000, 1.339199)">
                                    <polygon id="s-8" points="0.36668555 0 0.59158888 0.69218128 0.0027843231 0.26438972 0.730586777 0.26438972 0.14178222 0.69218128"></polygon>
                                </g>
                                <g id="use1793" transform="translate(0.000000, 2.678399)">
                                    <polygon id="s-8" points="0.36668555 0 0.59158888 0.69218128 0.0027843231 0.26438972 0.730586777 0.26438972 0.14178222 0.69218128"></polygon>
                                </g>
                                <g id="use1795" transform="translate(0.000000, 4.017598)">
                                    <polygon id="s-8" points="0.36668555 0 0.59158888 0.69218128 0.0027843231 0.26438972 0.730586777 0.26438972 0.14178222 0.69218128"></polygon>
                                </g>
                            </g>
                        </g>
                        <g id="s5" transform="translate(7.875768, 0.000000)">
                            <g id="s4-5">
                                <polygon id="s-8" points="0.36668555 0 0.59158888 0.69218128 0.0027843231 0.26438972 0.730586777 0.26438972 0.14178222 0.69218128"></polygon>
                                <g id="use1791" transform="translate(0.000000, 1.339199)">
                                    <polygon id="s-8" points="0.36668555 0 0.59158888 0.69218128 0.0027843231 0.26438972 0.730586777 0.26438972 0.14178222 0.69218128"></polygon>
                                </g>
                                <g id="use1793" transform="translate(0.000000, 2.678399)">
                                    <polygon id="s-8" points="0.36668555 0 0.59158888 0.69218128 0.0027843231 0.26438972 0.730586777 0.26438972 0.14178222 0.69218128"></polygon>
                                </g>
                                <g id="use1795" transform="translate(0.000000, 4.017598)">
                                    <polygon id="s-8" points="0.36668555 0 0.59158888 0.69218128 0.0027843231 0.26438972 0.730586777 0.26438972 0.14178222 0.69218128"></polygon>
                                </g>
                            </g>
                            <g id="use1798" transform="translate(0.000000, 5.356798)">
                                <polygon id="s-8" points="0.36668555 0 0.59158888 0.69218128 0.0027843231 0.26438972 0.730586777 0.26438972 0.14178222 0.69218128"></polygon>
                            </g>
                        </g>
                    </g>
                </g>
            </g>
        </g>
    </g>
</svg>