<?xml version="1.0" encoding="utf-8"?>
<!-- Generator: Adobe Illustrator 27.5.0, SVG Export Plug-In . SVG Version: 6.00 Build 0)  -->
<svg version="1.1" id="Layer_1" xmlns="http://www.w3.org/2000/svg" xmlns:xlink="http://www.w3.org/1999/xlink" x="0px" y="0px"
	 viewBox="0 0 451 437" style="enable-background:new 0 0 451 437;" xml:space="preserve">
<style type="text/css">
	.st0{fill:#FFFFFF;}
	.st1{fill:#FFFFFF;fill-opacity:0;stroke:#FFFFFF;stroke-width:0.5;stroke-opacity:0.3019;}
	.st2{fill:none;stroke:#FFFFFF;stroke-width:0.6904;}
	.st3{fill:none;stroke:#FFFFFF;stroke-width:0.6405;}
	.st4{fill:none;stroke:#FFFFFF;stroke-width:0.6703;}
</style>
<g>
	<path class="st3" d="M248.7,114.3v-8.8c1.6-8.3,26.3-20.1,26.3-29.9c0-4.6-3-7.4-7.9-7.4c-5.3,0-8.4,3.5-9.6,8.4l-8.6-1.8
		c1.1-8.2,8.8-14.5,18.3-14.5c9.4,0,17.3,5.4,17.3,15.4c0,13-12,18.3-25.2,30.4h25.2v8.3L248.7,114.3L248.7,114.3z"/>
	<path class="st3" d="M312.7,60.3c14.1,0,19.4,12.1,19.4,27.4s-5.3,27.4-19.4,27.4s-19.4-12.1-19.4-27.4
		C293.3,72.4,298.6,60.3,312.7,60.3z M312.7,107.1c5.8,0,9.8-4.9,9.8-19.4s-4-19.4-9.8-19.4c-5.8,0-9.8,4.9-9.8,19.4
		S306.9,107.1,312.7,107.1z"/>
	<path class="st3" d="M339.9,114.3v-8.8c1.6-8.3,26.3-20.1,26.3-29.9c0-4.6-3-7.4-7.9-7.4c-5.3,0-8.4,3.5-9.6,8.4l-8.6-1.8
		c1.1-8.2,8.8-14.5,18.3-14.5c9.4,0,17.3,5.4,17.3,15.4c0,13-12,18.3-25.2,30.4h25.2v8.3L339.9,114.3L339.9,114.3z"/>
	<path class="st3" d="M393.1,114.3v-7.4h8.3V70.2H392V64c4.9-0.2,9.2-1.3,11.6-3.7h7.5v46.6h8.2v7.4H393.1z"/>
	<path class="st3" d="M248.7,169.1v-8.8c1.6-8.3,26.3-20.1,26.3-29.9c0-4.6-3-7.4-7.9-7.4c-5.3,0-8.4,3.5-9.6,8.4l-8.6-1.8
		c1.1-8.2,8.8-14.5,18.3-14.5c9.4,0,17.3,5.4,17.3,15.4c0,13-12,18.3-25.2,30.4h25.2v8.3L248.7,169.1L248.7,169.1z"/>
	<path class="st3" d="M312.7,115c14.1,0,19.4,12.1,19.4,27.4s-5.3,27.4-19.4,27.4s-19.4-12.1-19.4-27.4
		C293.3,127.2,298.6,115,312.7,115z M312.7,161.8c5.8,0,9.8-4.9,9.8-19.4s-4-19.4-9.8-19.4c-5.8,0-9.8,4.9-9.8,19.4
		S306.9,161.8,312.7,161.8z"/>
	<path class="st3" d="M339.9,169.1v-8.8c1.6-8.3,26.3-20.1,26.3-29.9c0-4.6-3-7.4-7.9-7.4c-5.3,0-8.4,3.5-9.6,8.4l-8.6-1.8
		c1.1-8.2,8.8-14.5,18.3-14.5c9.4,0,17.3,5.4,17.3,15.4c0,13-12,18.3-25.2,30.4h25.2v8.3L339.9,169.1L339.9,169.1z"/>
	<path class="st3" d="M386.5,169.1v-8.8c1.6-8.3,26.3-20.1,26.3-29.9c0-4.6-3-7.4-7.9-7.4c-5.3,0-8.4,3.5-9.6,8.4l-8.6-1.8
		c1.1-8.2,8.8-14.5,18.3-14.5c9.4,0,17.3,5.4,17.3,15.4c0,13-12,18.3-25.2,30.4h25.2v8.3L386.5,169.1L386.5,169.1z"/>
	<path class="st0" d="M248.7,223.8V215c1.6-8.3,26.3-20.1,26.3-29.9c0-4.6-3-7.4-7.9-7.4c-5.3,0-8.4,3.5-9.6,8.4l-8.6-1.8
		c1.1-8.2,8.8-14.5,18.3-14.5c9.4,0,17.3,5.4,17.3,15.4c0,13-12,18.3-25.2,30.4h25.2v8.3L248.7,223.8L248.7,223.8z"/>
	<path class="st0" d="M312.7,169.8c14.1,0,19.4,12.1,19.4,27.4s-5.3,27.4-19.4,27.4s-19.4-12.1-19.4-27.4
		C293.3,181.9,298.6,169.8,312.7,169.8z M312.7,216.6c5.8,0,9.8-4.9,9.8-19.4s-4-19.4-9.8-19.4c-5.8,0-9.8,4.9-9.8,19.4
		S306.9,216.6,312.7,216.6z"/>
	<path class="st0" d="M339.9,223.8V215c1.6-8.3,26.3-20.1,26.3-29.9c0-4.6-3-7.4-7.9-7.4c-5.3,0-8.4,3.5-9.6,8.4l-8.6-1.8
		c1.1-8.2,8.8-14.5,18.3-14.5c9.4,0,17.3,5.4,17.3,15.4c0,13-12,18.3-25.2,30.4h25.2v8.3L339.9,223.8L339.9,223.8z"/>
	<path class="st0" d="M396.7,191.6c7.8,0,14.3-1.1,14.3-7.5c0-3.8-3.2-6.3-7.7-6.3c-4.5,0-7.5,2.5-10.2,5.3l-6.3-5.8
		c5.2-5.5,10.8-7.5,16.2-7.5c9.7,0,17.6,4.7,17.6,13.7c0,5.3-3,9.3-8,11.5c6.3,2,9.8,6.9,9.8,13.5c0,11.1-9.4,16-18.9,16
		c-7.5,0-15.1-3.5-18.8-10.3l7.7-4.4c2.6,4.4,6.1,6.7,11.2,6.7c4.7,0,9.2-2.9,9.2-8c0-8.7-9.7-9-16.1-9V191.6z"/>
	<path class="st3" d="M248.7,278.6v-8.8c1.6-8.3,26.3-20.1,26.3-29.9c0-4.6-3-7.4-7.9-7.4c-5.3,0-8.4,3.5-9.6,8.4l-8.6-1.8
		c1.1-8.2,8.8-14.5,18.3-14.5c9.4,0,17.3,5.4,17.3,15.4c0,13-12,18.3-25.2,30.4h25.2v8.3L248.7,278.6L248.7,278.6z"/>
	<path class="st3" d="M312.7,224.5c14.1,0,19.4,12.1,19.4,27.4s-5.3,27.4-19.4,27.4s-19.4-12.1-19.4-27.4
		C293.3,236.6,298.6,224.5,312.7,224.5z M312.7,271.3c5.8,0,9.8-4.9,9.8-19.4c0-14.5-4-19.4-9.8-19.4c-5.8,0-9.8,4.9-9.8,19.4
		C302.9,266.4,306.9,271.3,312.7,271.3z"/>
	<path class="st3" d="M339.9,278.6v-8.8c1.6-8.3,26.3-20.1,26.3-29.9c0-4.6-3-7.4-7.9-7.4c-5.3,0-8.4,3.5-9.6,8.4l-8.6-1.8
		c1.1-8.2,8.8-14.5,18.3-14.5c9.4,0,17.3,5.4,17.3,15.4c0,13-12,18.3-25.2,30.4h25.2v8.3L339.9,278.6L339.9,278.6z"/>
	<path class="st3" d="M383.2,256.9l22.7-31.7h10.4v33.7h7.5v7.4h-7.5v12.3h-9.2v-12.3h-24V256.9L383.2,256.9z M407.2,258.9v-23.8
		H407l-16.5,23.8H407.2L407.2,258.9z"/>
	<path class="st3" d="M248.7,333.3v-8.8c1.6-8.3,26.3-20.1,26.3-29.9c0-4.6-3-7.4-7.9-7.4c-5.3,0-8.4,3.5-9.6,8.4l-8.6-1.8
		c1.1-8.2,8.8-14.5,18.3-14.5c9.4,0,17.3,5.4,17.3,15.4c0,13-12,18.3-25.2,30.4h25.2v8.3L248.7,333.3L248.7,333.3z"/>
	<path class="st3" d="M312.7,279.3c14.1,0,19.4,12.1,19.4,27.4s-5.3,27.4-19.4,27.4s-19.4-12.1-19.4-27.4
		C293.3,291.4,298.6,279.3,312.7,279.3z M312.7,326.1c5.8,0,9.8-4.9,9.8-19.4s-4-19.4-9.8-19.4c-5.8,0-9.8,4.9-9.8,19.4
		C302.9,321.2,306.9,326.1,312.7,326.1z"/>
	<path class="st3" d="M339.9,333.3v-8.8c1.6-8.3,26.3-20.1,26.3-29.9c0-4.6-3-7.4-7.9-7.4c-5.3,0-8.4,3.5-9.6,8.4l-8.6-1.8
		c1.1-8.2,8.8-14.5,18.3-14.5c9.4,0,17.3,5.4,17.3,15.4c0,13-12,18.3-25.2,30.4h25.2v8.3L339.9,333.3L339.9,333.3z"/>
	<path class="st3" d="M390.8,279.3h28.8v8.3h-21.6l-0.7,12.1c1.7-1.8,4.2-3.1,10-3.1c9.6,0,15.9,9,15.9,17.7c0,11.7-6.8,19-19.6,19
		c-8.4,0-14.3-4-17.3-10l8-4.1c1.6,3.8,5.8,6,9.4,6.1c6.8,0.2,9.9-4.4,9.9-11c0-5.5-3.5-9.7-9.1-9.7c-3.8,0-6.6,1.9-8,4.6l-7.7-1.5
		L390.8,279.3z"/>
	<path class="st3" d="M248.7,60.3v-8.8c1.6-8.3,26.3-20.1,26.3-29.9c0-4.6-3-7.4-7.9-7.4c-5.3,0-8.4,3.5-9.6,8.4l-8.6-1.8
		c1.1-8.2,8.8-14.5,18.3-14.5c9.4,0,17.3,5.4,17.3,15.4c0,13-12,18.3-25.2,30.4h25.2v8.3L248.7,60.3L248.7,60.3z"/>
	<path class="st3" d="M312.7,5.5c14.1,0,19.4,12.1,19.4,27.4s-5.3,27.4-19.4,27.4s-19.4-12.1-19.4-27.4
		C293.3,17.6,298.6,5.5,312.7,5.5z M312.7,52.3c5.8,0,9.8-4.9,9.8-19.4s-4-19.4-9.8-19.4c-5.8,0-9.8,4.9-9.8,19.4
		S306.9,52.3,312.7,52.3z"/>
	<path class="st3" d="M339.9,60.3v-8.8c1.6-8.3,26.3-20.1,26.3-29.9c0-4.6-3-7.4-7.9-7.4c-5.3,0-8.4,3.5-9.6,8.4l-8.6-1.8
		c1.1-8.2,8.8-14.5,18.3-14.5c9.4,0,17.3,5.4,17.3,15.4c0,13-12,18.3-25.2,30.4h25.2v8.3L339.9,60.3L339.9,60.3z"/>
	<path class="st3" d="M405.9,5.5c14.1,0,19.4,12.1,19.4,27.4s-5.3,27.4-19.4,27.4s-19.4-12.1-19.4-27.4
		C386.5,17.6,391.8,5.5,405.9,5.5z M405.9,52.3c5.8,0,9.8-4.9,9.8-19.4s-4-19.4-9.8-19.4c-5.8,0-9.8,4.9-9.8,19.4
		S400.1,52.3,405.9,52.3z"/>
	<path class="st3" d="M248.7,388v-8.8c1.6-8.3,26.3-20.1,26.3-29.9c0-4.6-3-7.4-7.9-7.4c-5.3,0-8.4,3.5-9.6,8.4l-8.6-1.8
		c1.1-8.2,8.8-14.5,18.3-14.5c9.4,0,17.3,5.4,17.3,15.4c0,13-12,18.3-25.2,30.4h25.2v8.3L248.7,388L248.7,388z"/>
	<path class="st3" d="M312.7,334c14.1,0,19.4,12.1,19.4,27.4s-5.3,27.4-19.4,27.4s-19.4-12.1-19.4-27.4
		C293.3,346.1,298.6,334,312.7,334z M312.7,380.8c5.8,0,9.8-4.9,9.8-19.4c0-14.5-4-19.4-9.8-19.4c-5.8,0-9.8,4.9-9.8,19.4
		C302.9,376,306.9,380.8,312.7,380.8z"/>
	<path class="st3" d="M339.9,388v-8.8c1.6-8.3,26.3-20.1,26.3-29.9c0-4.6-3-7.4-7.9-7.4c-5.3,0-8.4,3.5-9.6,8.4l-8.6-1.8
		c1.1-8.2,8.8-14.5,18.3-14.5c9.4,0,17.3,5.4,17.3,15.4c0,13-12,18.3-25.2,30.4h25.2v8.3L339.9,388L339.9,388z"/>
	<g>
		<path class="st4" d="M418.2,345.7c-2.2-1.9-5.2-3.7-9-3.7c-7.2,0-13.1,7.2-13.3,16.2c3.5-3,7.1-4.3,12-4.3
			c9.4,0,16.3,7.1,16.4,17.3c-0.1,11.1-8.1,17.6-18.8,17.6c-11.1,0-19.1-8-19.1-24.2c0-18.6,8.4-30.6,22.9-30.6
			c5.2,0,9.2,1.5,13.2,4L418.2,345.7z M405.5,361.9c-4.3,0-7.5,2.1-9.6,6.1c0,9,5.1,12.8,10.3,12.8c5.1,0,8.6-3.7,8.5-9.2
			C414.8,365.7,411.5,361.9,405.5,361.9z"/>
	</g>
</g>
</svg>
